<?xml version="1.0" encoding="utf-8"?><svg xmlns="http://www.w3.org/2000/svg" xmlns:xlink="http://www.w3.org/1999/xlink"><symbol viewBox="0 0 16 16" id="close" xmlns="http://www.w3.org/2000/svg"><path d="M1.672 16c-.425 0-.85-.156-1.186-.492a1.686 1.686 0 010-2.37L13.143.487a1.688 1.688 0 012.37 0 1.686 1.686 0 010 2.37L2.858 15.508c-.313.336-.76.492-1.185.492z"/><path d="M14.328 16c-.424 0-.85-.156-1.185-.492L.486 2.856a1.686 1.686 0 010-2.37 1.688 1.688 0 012.37 0L15.515 13.14a1.686 1.686 0 010 2.37 1.66 1.66 0 01-1.186.491z"/></symbol><symbol viewBox="0 0 20 20" id="direct-inbox" xmlns="http://www.w3.org/2000/svg"><path fill-rule="evenodd" clip-rule="evenodd" d="M9.942.003a.658.658 0 01.147.001.688.688 0 01.425.213l1.846 1.848c.27.27.27.716 0 .986a.7.7 0 01-.985 0l-.669-.67V7.21a.702.702 0 01-.697.698.702.702 0 01-.697-.698V2.382l-.669.67a.7.7 0 01-.985 0 .702.702 0 010-.987L9.478.243a.663.663 0 01.2-.16.686.686 0 01.264-.08z"/><path d="M11.645 15.349h-3.28c-.977 0-1.85-.54-2.287-1.414l-1.087-2.177a.223.223 0 00-.205-.13H.697A.702.702 0 010 10.93c0-.381.316-.698.697-.698h4.099c.622 0 1.18.345 1.459.903l1.087 2.177c.195.4.595.641 1.04.641h3.282c.446 0 .845-.242 1.04-.641l1.088-2.177a1.62 1.62 0 011.459-.903h4.052c.381 0 .697.317.697.698a.702.702 0 01-.697.698h-4.052a.214.214 0 00-.204.13l-1.088 2.177c-.465.874-1.338 1.414-2.314 1.414z"/><path d="M12.797 20H7.221C2.175 20 .02 17.842.02 12.79V9.07c0-4.363 1.617-6.55 5.241-7.08a.689.689 0 01.79.586.694.694 0 01-.585.791c-2.919.428-4.052 2.028-4.052 5.703v3.72c0 4.289 1.524 5.814 5.808 5.814h5.576c4.285 0 5.809-1.525 5.809-5.814V9.07c0-3.675-1.134-5.275-4.052-5.703a.694.694 0 01-.586-.79.694.694 0 01.79-.587C18.383 2.52 20 4.707 20 9.07v3.72c0 5.052-2.156 7.21-7.203 7.21z"/></symbol><symbol viewBox="0 0 30 30" id="next" xmlns="http://www.w3.org/2000/svg"><path d="M15 30C6.726 30 0 23.274 0 15 0 6.726 6.726 0 15 0c8.274 0 15 6.726 15 15 0 8.274-6.726 15-15 15zm0-27.907C7.884 2.093 2.093 7.883 2.093 15c0 7.116 5.79 12.907 12.907 12.907 7.116 0 12.907-5.79 12.907-12.907 0-7.116-5.79-12.907-12.907-12.907z"/><path d="M18.488 16.047h-8.372A1.054 1.054 0 019.07 15c0-.572.474-1.046 1.046-1.046h8.372c.573 0 1.047.474 1.047 1.046 0 .572-.474 1.047-1.047 1.047z"/><path d="M15.697 20.232c-.265 0-.53-.098-.74-.307a1.053 1.053 0 010-1.479L18.405 15l-3.446-3.447a1.053 1.053 0 010-1.479 1.053 1.053 0 011.479 0l4.186 4.186a1.053 1.053 0 010 1.48l-4.186 4.185c-.21.21-.475.307-.74.307z"/></symbol><symbol viewBox="0 0 22 12" id="next-2" xmlns="http://www.w3.org/2000/svg"><path d="M1 5.25a.75.75 0 000 1.5v-1.5zm20.53 1.28a.75.75 0 000-1.06L16.757.697a.75.75 0 00-1.06 1.06L19.939 6l-4.242 4.243a.75.75 0 001.06 1.06L21.53 6.53zM1 6.75h20v-1.5H1v1.5z"/></symbol><symbol viewBox="0 0 24 24" id="pgone" xmlns="http://www.w3.org/2000/svg"><path d="M18.744 10.5a.924.924 0 01-.924-.924c0-.444-.444-1.368-1.188-2.172-.732-.78-1.536-1.236-2.208-1.236a.924.924 0 01-.924-.924c0-.504.42-.924.924-.924 1.2 0 2.46.648 3.564 1.812C19.02 7.224 19.68 8.58 19.68 9.564c0 .516-.42.936-.936.936zm4.332 0a.924.924 0 01-.924-.924c0-4.26-3.468-7.716-7.716-7.716a.924.924 0 01-.924-.924c0-.504.408-.936.912-.936C19.704 0 24 4.296 24 9.576c0 .504-.42.924-.924.924zM10.86 15.54l-2.22 2.22a1.206 1.206 0 01-1.692.012c-.132-.132-.264-.252-.396-.384a34.097 34.097 0 01-3.348-3.924C2.22 12.096 1.428 10.728.852 9.372.288 8.004 0 6.696 0 5.448c0-.816.144-1.596.432-2.316a5.523 5.523 0 011.38-2.004C2.58.372 3.42 0 4.308 0c.336 0 .672.072.972.216.312.144.588.36.804.672l2.784 3.924c.216.3.372.576.48.84.108.252.168.504.168.732 0 .288-.084.576-.252.852a4.082 4.082 0 01-.672.852l-.912.948a.642.642 0 00-.192.48c0 .096.012.18.036.276.036.096.072.168.096.24.216.396.588.912 1.116 1.536.54.624 1.116 1.26 1.74 1.896.12.12.252.24.372.36.48.468.492 1.236.012 1.716zm13.104 4.056a3.048 3.048 0 01-.3 1.308c-.204.432-.468.84-.816 1.224-.588.648-1.236 1.116-1.968 1.416-.012 0-.024.012-.036.012A6.062 6.062 0 0118.54 24c-1.224 0-2.532-.288-3.912-.876-1.38-.588-2.76-1.38-4.128-2.376a30.153 30.153 0 01-1.38-1.068l3.924-3.924c.336.252.636.444.888.576.06.024.132.06.216.096a.829.829 0 00.3.048.66.66 0 00.492-.204l.912-.9c.3-.3.588-.528.864-.672.276-.168.552-.252.852-.252.228 0 .468.048.732.156.264.108.54.264.84.468l3.972 2.82c.312.216.528.468.66.768.12.3.192.6.192.936z"/></symbol><symbol viewBox="0 0 24 24" id="phone" xmlns="http://www.w3.org/2000/svg"><path d="M18.744 10.5a.924.924 0 01-.924-.924c0-.444-.444-1.368-1.188-2.172-.732-.78-1.536-1.236-2.208-1.236a.924.924 0 01-.924-.924c0-.504.42-.924.924-.924 1.2 0 2.46.648 3.564 1.812C19.02 7.224 19.68 8.58 19.68 9.564c0 .516-.42.936-.936.936zm4.332 0a.924.924 0 01-.924-.924c0-4.26-3.468-7.716-7.716-7.716a.924.924 0 01-.924-.924c0-.504.408-.936.912-.936C19.704 0 24 4.296 24 9.576c0 .504-.42.924-.924.924zM10.86 15.54l-2.22 2.22a1.206 1.206 0 01-1.692.012c-.132-.132-.264-.252-.396-.384a34.097 34.097 0 01-3.348-3.924C2.22 12.096 1.428 10.728.852 9.372.288 8.004 0 6.696 0 5.448c0-.816.144-1.596.432-2.316a5.523 5.523 0 011.38-2.004C2.58.372 3.42 0 4.308 0c.336 0 .672.072.972.216.312.144.588.36.804.672l2.784 3.924c.216.3.372.576.48.84.108.252.168.504.168.732 0 .288-.084.576-.252.852a4.082 4.082 0 01-.672.852l-.912.948a.642.642 0 00-.192.48c0 .096.012.18.036.276.036.096.072.168.096.24.216.396.588.912 1.116 1.536.54.624 1.116 1.26 1.74 1.896.12.12.252.24.372.36.48.468.492 1.236.012 1.716zm13.104 4.056a3.048 3.048 0 01-.3 1.308c-.204.432-.468.84-.816 1.224-.588.648-1.236 1.116-1.968 1.416-.012 0-.024.012-.036.012A6.062 6.062 0 0118.54 24c-1.224 0-2.532-.288-3.912-.876-1.38-.588-2.76-1.38-4.128-2.376a30.153 30.153 0 01-1.38-1.068l3.924-3.924c.336.252.636.444.888.576.06.024.132.06.216.096a.829.829 0 00.3.048.66.66 0 00.492-.204l.912-.9c.3-.3.588-.528.864-.672.276-.168.552-.252.852-.252.228 0 .468.048.732.156.264.108.54.264.84.468l3.972 2.82c.312.216.528.468.66.768.12.3.192.6.192.936z"/></symbol><symbol viewBox="0 0 30 30" id="prev" xmlns="http://www.w3.org/2000/svg"><path d="M15 30c8.274 0 15-6.726 15-15 0-8.274-6.726-15-15-15C6.726 0 0 6.726 0 15c0 8.274 6.726 15 15 15zm0-27.907c7.116 0 12.907 5.79 12.907 12.907 0 7.116-5.79 12.907-12.907 12.907-7.116 0-12.907-5.79-12.907-12.907C2.093 7.884 7.883 2.093 15 2.093z"/><path d="M11.512 16.047h8.372c.572 0 1.046-.475 1.046-1.047s-.474-1.046-1.046-1.046h-8.372c-.572 0-1.047.474-1.047 1.046 0 .572.475 1.047 1.047 1.047z"/><path d="M14.302 20.232c.266 0 .53-.098.74-.307a1.053 1.053 0 000-1.479L11.595 15l3.447-3.447a1.053 1.053 0 000-1.479 1.053 1.053 0 00-1.48 0L9.378 14.26a1.053 1.053 0 000 1.48l4.186 4.185c.21.21.474.307.74.307z"/></symbol><symbol viewBox="0 0 22 12" id="prev-2" xmlns="http://www.w3.org/2000/svg"><path d="M21 5.25a.75.75 0 010 1.5v-1.5zM.47 6.53a.75.75 0 010-1.06L5.243.697a.75.75 0 111.06 1.06L2.061 6l4.242 4.243a.75.75 0 01-1.06 1.06L.47 6.53zM21 6.75H1v-1.5h20v1.5z"/></symbol><symbol viewBox="0 0 22 16" id="right" xmlns="http://www.w3.org/2000/svg"><path d="M1 7a1 1 0 000 2V7zm20.707 1.707a1 1 0 000-1.414L15.343.929a1 1 0 10-1.414 1.414L19.586 8l-5.657 5.657a1 1 0 001.414 1.414l6.364-6.364zM1 9h20V7H1v2z"/></symbol><symbol viewBox="0 0 26 12" id="right-2" xmlns="http://www.w3.org/2000/svg"><path fill-rule="evenodd" clip-rule="evenodd" d="M20.507.697L25.28 5.47a.75.75 0 010 1.06l-4.773 4.773a.75.75 0 01-1.06-1.06l3.492-3.493H.75a.75.75 0 110-1.5h22.19l-3.493-3.493a.75.75 0 111.06-1.06z"/></symbol><symbol viewBox="0 0 18 8" id="right-3" xmlns="http://www.w3.org/2000/svg"><path d="M1 3.5a.5.5 0 000 1v-1zm16.354.854a.5.5 0 000-.708L14.172.464a.5.5 0 10-.708.708L16.293 4l-2.829 2.828a.5.5 0 10.708.708l3.182-3.182zM1 4.5h16v-1H1v1z"/></symbol></svg>