<svg width="31" height="24" viewBox="0 0 31 24" fill="none" xmlns="http://www.w3.org/2000/svg">
<path d="M9.48718 1.23077C9.79772 0.485475 10.5259 0 11.3333 0H15C16.4272 0 17.3951 1.45186 16.8462 2.76923L8.51282 22.7692C8.20228 23.5145 7.47407 24 6.66667 24H3C1.57284 24 0.60494 22.5481 1.15385 21.2308L9.48718 1.23077Z" fill="white"/>
<path d="M22.4872 1.23077C22.7977 0.485475 23.5259 0 24.3333 0H28C29.4272 0 30.3951 1.45186 29.8462 2.76923L21.5128 22.7692C21.2023 23.5145 20.4741 24 19.6667 24H16C14.5728 24 13.6049 22.5481 14.1538 21.2308L22.4872 1.23077Z" fill="white"/>
</svg>
