<svg width="31" height="24" viewBox="0 0 31 24" fill="none" xmlns="http://www.w3.org/2000/svg">
<path d="M9.94872 1.42308C10.1816 0.864106 10.7278 0.5 11.3333 0.5H15C16.0704 0.5 16.7963 1.58889 16.3846 2.57692L8.05128 22.5769C7.81838 23.1359 7.27222 23.5 6.66667 23.5H3C1.92963 23.5 1.2037 22.4111 1.61538 21.4231L9.94872 1.42308Z" fill="white" stroke="#E5E5E5"/>
<path d="M22.9487 1.42308C23.1816 0.864106 23.7278 0.5 24.3333 0.5H28C29.0704 0.5 29.7963 1.58889 29.3846 2.57692L21.0513 22.5769C20.8184 23.1359 20.2722 23.5 19.6667 23.5H16C14.9296 23.5 14.2037 22.4111 14.6154 21.4231L22.9487 1.42308Z" fill="white" stroke="#E5E5E5"/>
</svg>
