<svg width="20" height="22" viewBox="0 0 20 22" fill="none" xmlns="http://www.w3.org/2000/svg">
<path d="M17.376 10.483C16.7475 10.318 16.0088 10.23 15.1268 10.23C13.903 10.23 13.4509 10.527 12.8225 11C12.7894 11.022 12.7563 11.055 12.7233 11.088L11.6759 12.199C10.8049 13.134 9.20617 13.134 8.32414 12.199L7.27674 11.099C7.24366 11.055 7.21058 11.022 7.17751 11C6.53804 10.527 6.086 10.23 4.87321 10.23C3.99118 10.23 3.25248 10.307 2.62404 10.483C-2.62865e-07 11.187 0 13.266 0 15.092V16.115C0 18.8761 -5.2573e-07 22.0001 5.89857 22.0001H14.1014C18.0154 22.0001 20 20.0201 20 16.115V15.092C20 13.266 20 11.187 17.376 10.483Z" fill="#292D32"/>
<path d="M13.0761 0H6.92399C2.05078 0 2.05078 2.58503 2.05078 4.86205V8.93209C2.09488 8.91009 2.15001 8.89909 2.19411 8.88809C2.96589 8.67908 3.83689 8.58008 4.87327 8.58008C6.57118 8.58008 7.37603 9.07509 8.16986 9.68009C8.28011 9.75709 8.39036 9.8561 8.48959 9.9661L9.52597 11.0551C9.63623 11.1761 9.81263 11.2421 10.0001 11.2421C10.1875 11.2421 10.3639 11.1761 10.4631 11.0661L11.5216 9.9551C11.6098 9.8671 11.709 9.7681 11.8192 9.69109C12.6351 9.07509 13.429 8.58008 15.1269 8.58008C16.1632 8.58008 17.0342 8.67908 17.806 8.88809C17.8501 8.89909 17.9052 8.91009 17.9493 8.93209V4.86205C17.9493 2.58503 17.9493 0 13.0761 0ZM11.709 7.15007H8.29113C7.87217 7.15007 7.51936 6.79807 7.51936 6.38006C7.51936 5.95106 7.87217 5.61005 8.29113 5.61005H11.709C12.128 5.61005 12.4808 5.95106 12.4808 6.38006C12.4808 6.79807 12.128 7.15007 11.709 7.15007ZM12.569 4.08104H7.43116C7.01219 4.08104 6.67041 3.72904 6.67041 3.31103C6.67041 2.88203 7.01219 2.54102 7.43116 2.54102H12.569C12.9879 2.54102 13.3297 2.88203 13.3297 3.31103C13.3297 3.72904 12.9879 4.08104 12.569 4.08104Z" fill="#292D32"/>
</svg>
