<svg width="20" height="20" viewBox="0 0 20 20" fill="none" xmlns="http://www.w3.org/2000/svg">
<path d="M16.6699 0H14.7699C12.5899 0 11.4399 1.14999 11.4399 3.32997V5.22995C11.4399 7.40993 12.5899 8.55993 14.7699 8.55993H16.6699C18.8499 8.55993 19.9999 7.40993 19.9999 5.22995V3.32997C19.9999 1.14999 18.8499 0 16.6699 0Z" fill="#2D2D2D"/>
<path d="M5.23995 11.4302H3.33997C1.14999 11.4302 0 12.5802 0 14.7601V16.6601C0 18.8501 1.14999 20.0001 3.32997 20.0001H5.22995C7.40994 20.0001 8.55993 18.8501 8.55993 16.6701V14.7701C8.56993 12.5802 7.41994 11.4302 5.23995 11.4302Z" fill="#2D2D2D"/>
<path d="M4.28996 8.57992C6.65924 8.57992 8.57992 6.65924 8.57992 4.28996C8.57992 1.92068 6.65924 0 4.28996 0C1.92068 0 0 1.92068 0 4.28996C0 6.65924 1.92068 8.57992 4.28996 8.57992Z" fill="#2D2D2D"/>
<path d="M15.7099 19.9998C18.0792 19.9998 19.9998 18.0792 19.9998 15.7099C19.9998 13.3406 18.0792 11.4199 15.7099 11.4199C13.3406 11.4199 11.4199 13.3406 11.4199 15.7099C11.4199 18.0792 13.3406 19.9998 15.7099 19.9998Z" fill="#2D2D2D"/>
</svg>
