<svg width="20" height="20" viewBox="0 0 20 20" fill="none" xmlns="http://www.w3.org/2000/svg">
<path d="M13 1.90474V5.71423H11.4211V1.90474C11.4211 1.63407 11.1684 1.50374 11 1.50374C10.9474 1.50374 10.8947 1.51377 10.8421 1.53382L2.49474 4.53128C1.93684 4.73178 1.57895 5.23303 1.57895 5.80445V6.47613C0.621053 7.15782 0 8.25055 0 9.48362V5.80445C0 4.61148 0.768421 3.54884 1.93684 3.12779L10.2947 0.1203C10.5263 0.0401 10.7684 0 11 0C12.0526 0 13 0.812022 13 1.90474Z" fill="#2D2D2D"/>
<path d="M19.9999 12.4812V13.4837C19.9999 13.7544 19.7788 13.9749 19.4841 13.985H17.9472C17.3893 13.985 16.8841 13.594 16.842 13.0727C16.8104 12.7619 16.9367 12.4712 17.1472 12.2707C17.3367 12.0802 17.5999 11.98 17.8841 11.98H19.4736C19.7788 11.99 19.9999 12.2106 19.9999 12.4812Z" fill="#2D2D2D"/>
<path d="M17.8737 10.9273H18.9474C19.5263 10.9273 20 10.4762 20 9.92484V9.48374C20 7.40857 18.2211 5.71436 16.0421 5.71436H3.9579C3.06316 5.71436 2.24211 5.99505 1.57895 6.47625C0.621053 7.15795 0 8.25067 0 9.48374V16.2305C0 18.3057 1.77895 19.9999 3.9579 19.9999H16.0421C18.2211 19.9999 20 18.3057 20 16.2305V16.0401C20 15.4887 19.5263 15.0376 18.9474 15.0376H18.0316C17.0211 15.0376 16.0526 14.4461 15.7895 13.5138C15.5684 12.7519 15.8316 12.0201 16.3579 11.5288C16.7474 11.1479 17.2842 10.9273 17.8737 10.9273ZM12.1053 10.7268H4.73684C4.30526 10.7268 3.94737 10.386 3.94737 9.97497C3.94737 9.56394 4.30526 9.22309 4.73684 9.22309H12.1053C12.5368 9.22309 12.8947 9.56394 12.8947 9.97497C12.8947 10.386 12.5368 10.7268 12.1053 10.7268Z" fill="#2D2D2D"/>
</svg>
