<svg width="33" height="24" viewBox="0 0 33 24" fill="none" xmlns="http://www.w3.org/2000/svg">
<path d="M32.3411 3.70139L12.4032 24L0.628507 12.0033C0.226081 11.5932 -4.24025e-09 11.0371 0 10.4573C4.24025e-09 9.87743 0.226081 9.32133 0.628507 8.91131C1.03093 8.5013 1.57674 8.27095 2.14586 8.27095C2.71498 8.27095 3.26078 8.5013 3.66321 8.91131L12.4335 17.847L29.3368 0.640362C29.536 0.437342 29.7726 0.276299 30.033 0.166425C30.2933 0.0565514 30.5723 5.65969e-09 30.8541 0C31.1359 -5.65969e-09 31.415 0.0565515 31.6753 0.166425C31.9357 0.276299 32.1722 0.437342 32.3715 0.640362C32.5707 0.843382 32.7288 1.0844 32.8367 1.34966C32.9445 1.61492 33 1.89922 33 2.18633C33 2.47345 32.9445 2.75775 32.8367 3.02301C32.7288 3.28827 32.5707 3.52929 32.3715 3.73231L32.3411 3.70139Z" fill="#FFD800"/>
</svg>
